<svg xmlns="http://www.w3.org/2000/svg" width="250" height="250"><g fill="none" fill-rule="evenodd"><path fill="#000" fill-rule="nonzero" d="M0 10h250v230H0V10zm10 10v30h230V20H10zm0 40v170h230V60H10zm10-30h10v10H20V30zm20 0h10v10H40V30zm20 0h10v10H60V30z"/><g stroke="#000" stroke-width="10"><path d="M145 111l-23 24-14-11.4"/><path d="M125.5 78l38.5 22.3v44.5L125.5 167 87 144.7v-44.4z"/></g><path fill="#000" stroke="#000" d="M94.6 213.5h-5.5v-9.9H79v9.9h-5.4v-24.8h5.5v9.7H89v-9.7h5.5v24.8zM123 194h-7.6v19.5h-5.5V194h-7.6v-5.3H123v5.3zm27.2 0h-7.7v19.5H137V194h-7.6v-5.3h20.8v5.3zm13.2 5.8h3.2c2.1 0 3.6-1.2 3.6-3.1 0-2-1.5-3.2-3.6-3.2h-3.2v6.3zm3.8 4.8h-3.8v8.9h-5.5v-24.8h9.3c5 0 8.5 3.4 8.5 8s-3.5 7.9-8.5 7.9z"/></g></svg>